<svg className="logo" viewBox="0 0 23 23" fill="none" xmlns="http://www.w3.org/2000/svg">
	<path d="M11.5 23C17.8513 23 23 17.8513 23 11.5C23 5.14873 17.8513 0 11.5 0C5.14873 0 0 5.14873 0 11.5C0 17.8513 5.14873 23 11.5 23Z" fill="#D6DFE8">
	</path>
	<path d="M11.5 23C17.8513 23 23 17.8513 23 11.5C23 5.14873 17.8513 0 11.5 0C5.14873 0 0 5.14873 0 11.5C0 17.8513 5.14873 23 11.5 23Z" fill="#A970FF">
	</path>
	<path d="M22.6208 2.69749V14.4392C22.2814 15.7282 21.7233 16.9284 20.9892 17.9981H2.01089C1.34905 17.034 0.830834 15.9638 0.486328 14.8185V2.69749C0.486328 1.93382 1.10544 1.31421 1.86916 1.31421H21.238C22.0017 1.31421 22.6208 1.93382 22.6208 2.69749Z" fill="#6B6889">
	</path>
	<path d="M21.8083 3.0266V15.6977C21.8083 16.1601 21.5187 16.5351 21.161 16.5351H1.94566C1.58844 16.5351 1.29883 16.1601 1.29883 15.6977V3.0266C1.29883 2.56426 1.58844 2.18921 1.94566 2.18921H21.161C21.5187 2.18921 21.8083 2.56426 21.8083 3.0266Z" fill="#463F5B">
	</path>
	<path d="M15.901 17.998H7.20605V21.403H15.901V17.998Z" fill="#574D70">
	</path>
	<path d="M15.901 17.998H7.20605V18.9086H15.901V17.998Z" fill="#463F5B">
	</path>
	<path d="M11.9384 16.5351H1.94566C1.58844 16.5351 1.29883 16.1601 1.29883 15.6977V3.0266C1.29883 2.56426 1.58844 2.18921 1.94566 2.18921H4.57327C4.35271 5.84666 4.88544 13.1344 11.9384 16.5351Z" fill="#574D70">
	</path>
	<path d="M17.9129 21.047C17.6697 21.2108 17.4196 21.3657 17.1633 21.5108H5.83606C5.60561 21.3803 5.37983 21.2418 5.15967 21.0963C5.615 20.4096 6.38945 19.9829 7.23389 19.9829H15.8725C16.3738 19.9829 16.8512 20.1336 17.2511 20.3997C17.5078 20.5705 17.7331 20.7898 17.9129 21.047Z" fill="#6B6889">
	</path>
	<path d="M5.74461 6.10533C5.74461 5.86594 5.94927 5.72088 6.30882 5.72088C6.72844 5.72088 6.84344 5.9105 6.99838 5.9105C7.17815 5.9105 7.25793 5.68095 7.25793 5.56595C7.25793 5.23645 6.6036 5.1665 6.30882 5.1665C5.73427 5.1665 5.09499 5.42139 5.09499 6.16534C5.09499 7.34912 6.69843 7.11962 6.69843 7.86873C6.69843 8.16818 6.43887 8.3034 6.13893 8.3034C5.62965 8.3034 5.49493 7.91851 5.28982 7.91851C5.21237 7.91851 5.14104 7.97107 5.08893 8.0415C5.03776 8.11145 5.00537 8.19828 5.00537 8.26822C5.00537 8.39216 5.09737 8.52405 5.25415 8.63389C5.46254 8.78033 5.78548 8.88783 6.15914 8.88783C6.8482 8.88783 7.34809 8.51794 7.34809 7.804C7.348 6.50994 5.74461 6.72493 5.74461 6.10533Z" fill="#ED55A9">
	</path>
	<path d="M9.87057 5.1897H7.7574C7.61751 5.1897 7.55273 5.33942 7.55273 5.47931C7.55273 5.63937 7.62784 5.77409 7.7574 5.77409H8.49201V8.63642C8.49201 8.77114 8.65161 8.84109 8.81634 8.84109C8.9764 8.84109 9.14117 8.77114 9.14117 8.63642V5.77409H9.87061C10.0002 5.77409 10.0753 5.6342 10.0753 5.47931C10.0752 5.33942 10.0105 5.1897 9.87057 5.1897Z" fill="#ED55A9">
	</path>
	<path d="M12.6574 8.5214L11.6933 5.37934C11.6482 5.22961 11.4633 5.15967 11.2737 5.15967C11.0887 5.15967 10.9043 5.22961 10.8592 5.37934L9.89509 8.5214C9.88993 8.54157 9.88525 8.5613 9.88525 8.57118C9.88525 8.73124 10.12 8.84107 10.2946 8.84107C10.4044 8.84107 10.4894 8.80585 10.5147 8.71107L10.7044 8.04689H11.8482L12.0379 8.71107C12.0627 8.8059 12.1477 8.84107 12.2575 8.84107C12.4326 8.84107 12.6673 8.72607 12.6673 8.57118C12.6673 8.55613 12.6621 8.54157 12.6574 8.5214ZM10.839 7.53757L11.2737 6.00407L11.7083 7.53757H10.839Z" fill="#ED55A9">
	</path>
	<path d="M15.3948 8.4463L14.7405 7.23247C15.1155 7.11792 15.3948 6.80814 15.3948 6.23363C15.3948 5.43942 14.8654 5.1897 14.211 5.1897H13.222C13.0972 5.1897 13.0122 5.28453 13.0122 5.38964V8.63641C13.0122 8.77113 13.1774 8.84107 13.337 8.84107C13.5018 8.84107 13.6619 8.77113 13.6619 8.63641V7.33247H14.0815L14.7907 8.71107C14.8405 8.81107 14.9254 8.86596 15.0156 8.86596C15.2052 8.86596 15.4202 8.69135 15.4202 8.52658C15.4202 8.50636 15.415 8.47164 15.3948 8.4463ZM14.211 6.82314H13.6619V5.75904H14.211C14.5359 5.75904 14.7457 5.89892 14.7457 6.29365C14.7457 6.68842 14.5359 6.82314 14.211 6.82314Z" fill="#ED55A9">
	</path>
	<path d="M17.8974 5.1897H15.7847C15.6448 5.1897 15.5796 5.33942 15.5796 5.47931C15.5796 5.63937 15.6547 5.77409 15.7847 5.77409H16.5188V8.63642C16.5188 8.77114 16.6784 8.84109 16.8436 8.84109C17.0033 8.84109 17.168 8.77114 17.168 8.63642V5.77409H17.8974C18.0274 5.77409 18.1021 5.6342 18.1021 5.47931C18.1021 5.33942 18.0373 5.1897 17.8974 5.1897Z" fill="#ED55A9">
	</path>
	<path d="M7.75223 11.6163H6.90311C6.77355 11.6163 6.70361 11.7459 6.70361 11.8707C6.70361 11.8787 6.70406 11.8862 6.70455 11.8942C6.71066 11.9946 6.75949 12.0876 6.84538 12.1157C6.86277 12.1223 6.88245 12.1256 6.90311 12.1256H7.30772V12.4203C7.30772 12.5353 7.29034 12.6325 7.2575 12.7123C7.17911 12.9028 7.01249 12.9948 6.78344 12.9948C6.45393 12.9948 6.26382 12.8099 6.26382 12.4203V11.0267C6.26382 10.6371 6.45393 10.4521 6.7886 10.4521C7.21294 10.4521 7.29272 10.7122 7.30777 10.9469C7.31293 11.1018 7.45799 11.1515 7.6326 11.1515C7.8471 11.1515 7.95743 11.0915 7.95743 10.8418C7.95743 10.2424 7.45282 9.88281 6.76331 9.88281C6.38826 9.88281 6.05548 9.99125 5.84614 10.2518C5.70064 10.432 5.61475 10.6859 5.61475 11.0267V12.4204C5.61475 13.2545 6.12403 13.5643 6.78353 13.5643C7.14591 13.5643 7.46414 13.4709 7.67676 13.2484C7.85276 13.0658 7.95743 12.7964 7.95743 12.4204V11.8262C7.95734 11.7158 7.88223 11.6163 7.75223 11.6163Z" fill="#3FC0DD">
	</path>
	<path d="M10.9889 13.2148L10.0248 10.0727C9.9802 9.92297 9.79526 9.85303 9.6052 9.85303C9.42075 9.85303 9.2358 9.92297 9.19075 10.0727L8.22663 13.2148C8.22196 13.2349 8.2168 13.2546 8.2168 13.2645C8.2168 13.4246 8.45147 13.5344 8.62657 13.5344C8.73641 13.5344 8.82135 13.4992 8.84624 13.4044L9.03586 12.7402H10.1797L10.3699 13.4044C10.3947 13.4992 10.4797 13.5344 10.5895 13.5344C10.7641 13.5344 10.9989 13.4194 10.9989 13.2645C10.9988 13.2495 10.9941 13.2349 10.9889 13.2148ZM9.17098 12.2309L9.60515 10.6974L10.0398 12.2309H9.17098Z" fill="#3FC0DD">
	</path>
	<path d="M13.9113 9.88306C13.6767 9.88306 13.5663 9.93283 13.4016 10.2276L12.7871 11.3466L12.1727 10.2276C12.0079 9.93283 11.9032 9.88306 11.6686 9.88306C11.5034 9.88306 11.3438 9.968 11.3438 10.2079V13.3298C11.3438 13.4645 11.5034 13.5344 11.6686 13.5344C11.8282 13.5344 11.9929 13.4645 11.9929 13.3298V11.1419L12.5675 12.2206C12.6224 12.3206 12.7022 12.3506 12.7825 12.3506C12.8622 12.3506 12.9472 12.3206 13.0021 12.2206L13.5865 11.1818V13.3298C13.5865 13.4645 13.7461 13.5344 13.9113 13.5344C14.0709 13.5344 14.2357 13.4645 14.2357 13.3298V10.2079C14.2357 9.968 14.0761 9.88306 13.9113 9.88306Z" fill="#3FC0DD">
	</path>
	<path d="M16.8984 12.9651H15.4851V11.9611H16.2441C16.384 11.9611 16.4492 11.8263 16.4492 11.7113C16.4492 11.5766 16.3741 11.4513 16.2441 11.4513H15.4851V10.4524H16.8984C17.0284 10.4524 17.1036 10.3177 17.1036 10.1628C17.1036 10.0281 17.0383 9.88306 16.8984 9.88306H15.1204C14.9753 9.88306 14.8354 9.953 14.8354 10.0877V13.3298C14.8354 13.4645 14.9753 13.5344 15.1204 13.5344H16.8984C17.0383 13.5344 17.1036 13.3894 17.1036 13.2547C17.1036 13.0998 17.0285 12.9651 16.8984 12.9651Z" fill="#3FC0DD">
	</path>
	<path d="M5.08893 8.03979C5.14009 8.23646 5.19499 8.43408 5.25415 8.63218C5.09737 8.52235 5.00537 8.39046 5.00537 8.26652C5.00537 8.19657 5.03776 8.10974 5.08893 8.03979Z" fill="#F486C3">
	</path>
	<path d="M6.70459 11.8945C6.75059 11.9687 6.79704 12.0424 6.84542 12.1161C6.75948 12.0879 6.7107 11.995 6.70459 11.8945Z" fill="#5DD5E5">
	</path>
	<path d="M7.67674 13.2488C7.46413 13.4713 7.14586 13.5647 6.78352 13.5647C6.12402 13.5647 5.61475 13.2549 5.61475 12.4208V11.0271C5.61475 10.6864 5.70064 10.4324 5.84614 10.2522C5.97336 10.5446 6.1123 10.8352 6.26391 11.1229V12.4208C6.26391 12.8104 6.45402 12.9953 6.78352 12.9953C7.01257 12.9953 7.17919 12.9033 7.25758 12.7128C7.39086 12.8934 7.53075 13.0723 7.67674 13.2488Z" fill="#5DD5E5">
	</path>
</svg>
