<svg width="512" height="512" viewBox="0 0 512 512" fill="none" xmlns="http://www.w3.org/2000/svg">
<path d="M8.61719 61.0288V210.99H158.489L165.766 136.009L158.489 61.0288H8.61719Z" fill="#F8E868"/>
<path d="M105.754 210.99L76 271.028L105.754 331.093L286 345.064L465.775 331.093L496 270.982L465.775 210.87L105.754 210.99Z" fill="#D15573"/>
<path d="M106 331.093H466V450.97H106V331.093Z" fill="#9CE3BF"/>
<path d="M99.51 271.028L129.264 210.99L465.779 210.878L465.775 210.87L105.754 210.99L76 271.028L105.754 331.093H465.775L477.172 308.426H118.035L99.51 271.028Z" fill="#C21D44"/>
<path d="M158.489 90.8059H413.893V210.87H158.489V90.8059Z" fill="#C4E5F9"/>
<path d="M181.085 188.538V90.8059H158.489V210.87H413.893V188.538H181.085Z" fill="#A4D7F5"/>
<path d="M128.596 428.732V331H106V451.064H466V428.732H128.596Z" fill="#52CD8D"/>
<path d="M30.9892 188.583V61.0288H8.61719V210.99H158.489V188.583H30.9892Z" fill="#DEC80E"/>
<path d="M68.4893 61.0288H98.5533V105.986H68.4893V61.0288Z" fill="#D15573"/>
<path d="M68.4893 83.5078H98.5533V105.987H68.4893V83.5078Z" fill="#C21D44"/>
<path d="M31 83.7849H46V98.7849H31V83.7849Z" fill="white"/>
<path d="M30.4541 173.492H90.4681V188.495H30.4541V173.492Z" fill="black"/>
<path d="M30.4541 143.229H75.4641V158.232H30.4541V143.229Z" fill="black"/>
<path d="M300.654 188.398H345.675V173.395H315.657V158.423H330.671V143.42H315.657V128.448H345.675V113.445H300.654V188.398Z" fill="black"/>
<path d="M382.643 248.476V233.473H337.622V308.426H382.643V293.422H352.625V278.451H367.64V263.447H352.625V248.476H382.643Z" fill="black"/>
<path d="M247.974 255.974C247.974 243.573 237.885 233.484 225.484 233.484H202.702V308.405H217.705V283.228L239.661 308.448L250.977 298.596L232.476 277.345C241.464 274.397 247.974 265.934 247.974 255.974V255.974ZM225.485 263.46H217.706V248.488H225.485C229.613 248.488 232.971 251.846 232.971 255.974C232.971 260.102 229.613 263.46 225.485 263.46Z" fill="black"/>
<path d="M203.42 113.54H180.638V188.461H195.641V158.519H203.419C215.82 158.519 225.909 148.43 225.909 136.029C225.909 123.628 215.821 113.54 203.42 113.54V113.54ZM203.42 143.515H195.642V128.543H203.42C207.548 128.543 210.907 131.901 210.907 136.029C210.907 140.157 207.548 143.515 203.42 143.515V143.515Z" fill="black"/>
<path d="M360.679 143.42H390.686V158.423H360.679V143.42Z" fill="black"/>
<path d="M311.625 298.056C318.794 290.902 322.742 281.267 322.742 270.928C322.742 250.21 306.554 233.355 286.655 233.355H262.862V308.46H286.657C296.009 308.46 304.875 304.793 311.625 298.056V298.056ZM277.865 293.482V248.359H286.654C298.28 248.359 307.738 258.483 307.738 270.928C307.738 277.254 305.355 283.117 301.026 287.437C297.109 291.346 292.006 293.497 286.653 293.497C286.641 293.497 277.865 293.482 277.865 293.482V293.482Z" fill="black"/>
<path d="M157.592 233.37C141.046 233.37 127.585 246.831 127.585 263.377V278.481C127.585 295.027 141.046 308.488 157.592 308.488C174.138 308.488 187.599 295.027 187.599 278.481V263.377C187.599 246.831 174.138 233.37 157.592 233.37ZM172.596 278.48C172.596 286.753 165.865 293.483 157.593 293.483C149.32 293.483 142.59 286.752 142.59 278.48V263.376C142.59 255.103 149.321 248.373 157.593 248.373C165.866 248.373 172.596 255.104 172.596 263.376V278.48Z" fill="black"/>
<path d="M240.502 383.316V398.42C240.502 414.966 253.963 428.427 270.509 428.427C287.055 428.427 300.516 414.966 300.516 398.42V383.316C300.516 366.77 287.055 353.309 270.509 353.309C253.963 353.309 240.502 366.77 240.502 383.316ZM285.512 383.316V398.42C285.512 406.693 278.782 413.423 270.509 413.423C262.236 413.423 255.506 406.692 255.506 398.42V383.316C255.506 375.043 262.236 368.313 270.509 368.313C278.782 368.313 285.512 375.043 285.512 383.316Z" fill="black"/>
<path d="M469.953 203.275H420.937V83.1839H165.474V53.3999H0.564453V218.398H93.1355L67.0925 270.949L97.9695 333.281V458.435H383.044V443.432H112.973V338.529H180.489V323.526H109.88L83.8364 270.949L109.879 218.397L460.702 218.277L487.163 270.901L460.702 323.525H195.492V338.528H458.052V443.43H428.037V458.433H473.055V332.36L503.957 270.903L469.953 203.275ZM75.4535 68.4029H90.5204V98.3669H75.4535V68.4029ZM165.474 203.275V143.323H150.471V203.394H15.5685V68.4029H60.4505V113.37H105.524V68.4029H150.47V128.474H165.473V98.1869H405.933V203.275H165.474Z" fill="black"/>
<path d="M165.435 353.344V428.302H180.438V381.979L210.398 428.178H225.551V353.435H210.547V400.834L179.75 353.344H165.435Z" fill="black"/>
<path d="M383.864 353.309L377.553 406.583L357.016 379.368L337.123 405.826L330.902 353.309H315.793L324.692 428.428H338.901L357.038 404.305L375.242 428.428H390.074L398.973 353.309H383.864Z" fill="black"/>
<path d="M397.9 443.431H412.903V458.434H397.9V443.431Z" fill="black"/>
<path d="M425.255 31.6257L455.169 -0.209708L466.106 10.0673L436.192 41.9028L425.255 31.6257Z" fill="#6C5DD3"/>
<path d="M466.645 78.7373L504.156 56.4224L511.823 69.31L474.311 91.6249L466.645 78.7373Z" fill="#6C5DD3"/>
<path d="M447.191 53.4907L481.254 26.1533L490.647 37.8564L456.584 65.1938L447.191 53.4907Z" fill="#6C5DD3"/>
<path d="M0.00195312 455.357L31.8374 425.443L42.1144 436.38L10.279 466.294L0.00195312 455.357Z" fill="#6C5DD3"/>
<path d="M56.0117 504.088L78.3271 466.576L91.2156 474.243L68.9002 511.755L56.0117 504.088Z" fill="#6C5DD3"/>
<path d="M26.2129 481.057L53.5503 446.995L65.2526 456.386L37.9152 490.449L26.2129 481.057Z" fill="#6C5DD3"/>
<path d="M270 157.295C278.987 154.347 285.498 145.884 285.498 135.923C285.498 123.522 275.409 113.433 263.008 113.433H240.226V188.354H255.229V161.176L268.492 188.397L285.497 188.366L270 157.295ZM255.231 128.438H263.009C267.137 128.438 270.495 131.796 270.495 135.924C270.495 140.052 267.137 143.411 263.009 143.411H255.231V128.438Z" fill="black"/>
<path d="M427.637 277.307C436.624 274.359 443.135 265.896 443.135 255.935C443.135 243.534 433.046 233.445 420.645 233.445H397.863V308.366H412.866V281.188L426.129 308.409L443.134 308.378L427.637 277.307ZM412.867 248.449H420.645C424.773 248.449 428.131 251.807 428.131 255.935C428.131 260.063 424.773 263.422 420.645 263.422H412.867V248.449Z" fill="black"/>
</svg>
