<svg width="442" height="512" viewBox="0 0 442 512" fill="none" xmlns="http://www.w3.org/2000/svg">
<path d="M302.009 493.087V61.038C302.009 50.592 293.541 42.125 283.095 42.125H18.955C8.50899 42.125 0.0419922 50.593 0.0419922 61.038V493.087C0.0419922 503.533 8.50999 512 18.955 512H283.096C293.541 512 302.009 503.532 302.009 493.087Z" fill="#F8E868"/>
<path d="M345.107 42.124H281.808C292.254 42.124 300.722 50.592 300.722 61.037V493.086C300.722 503.532 292.254 511.999 281.808 511.999H345.107C355.553 511.999 364.021 503.531 364.021 493.086V61.038C364.021 50.592 355.553 42.124 345.107 42.124Z" fill="#F8E868"/>
<path d="M30.9551 474.326V79.7981C30.9551 76.0641 33.9821 73.0381 37.7151 73.0381H326.347C330.081 73.0381 333.107 76.0651 333.107 79.7981V474.326C333.107 478.06 330.08 481.086 326.347 481.086H37.7151C33.9811 481.086 30.9551 478.06 30.9551 474.326V474.326Z" fill="#F5F5F5"/>
<path d="M326.347 73.0381H263.048C266.782 73.0381 269.808 76.0651 269.808 79.7981V474.326C269.808 478.06 266.781 481.086 263.048 481.086H326.347C330.081 481.086 333.107 478.059 333.107 474.326V79.7981C333.107 76.0651 330.081 73.0381 326.347 73.0381Z" fill="#EAEAEA"/>
<path d="M222.21 23.538V13.581C222.21 6.081 216.13 0 208.629 0H155.432C147.931 0 141.851 6.081 141.851 13.581V23.538C141.851 26.605 139.364 29.092 136.297 29.092H114.157C106.792 29.092 100.821 35.063 100.821 42.428V73.038H263.24V42.428C263.24 35.063 257.269 29.092 249.904 29.092H227.764C224.697 29.092 222.21 26.605 222.21 23.538V23.538Z" fill="#C2D0DA"/>
<path d="M70.2783 182.792V123.254C70.2783 116.658 75.6263 111.31 82.2223 111.31H141.76C148.356 111.31 153.704 116.658 153.704 123.254V182.792C153.704 189.388 148.356 194.736 141.76 194.736H82.2223C75.6253 194.736 70.2783 189.388 70.2783 182.792V182.792Z" fill="#52CD8D"/>
<path d="M70.2783 306.832V247.294C70.2783 240.698 75.6263 235.35 82.2223 235.35H141.76C148.356 235.35 153.704 240.698 153.704 247.294V306.832C153.704 313.428 148.356 318.776 141.76 318.776H82.2223C75.6253 318.776 70.2783 313.428 70.2783 306.832Z" fill="#52CD8D"/>
<path d="M70.2783 430.871V371.333C70.2783 364.737 75.6263 359.389 82.2223 359.389H141.76C148.356 359.389 153.704 364.737 153.704 371.333V430.871C153.704 437.467 148.356 442.815 141.76 442.815H82.2223C75.6253 442.815 70.2783 437.468 70.2783 430.871Z" fill="#52CD8D"/>
<path d="M106.952 174.344C106.943 174.344 106.935 174.344 106.926 174.344C103.515 174.336 100.28 172.684 98.2707 169.927L89.2487 157.537C86.7367 154.087 87.4967 149.254 90.9467 146.742C94.3967 144.231 99.2297 144.991 101.741 148.44L106.972 155.625L122.267 134.845C124.797 131.408 129.633 130.674 133.069 133.203C136.506 135.732 137.241 140.569 134.711 144.006L115.599 169.971C113.584 172.71 110.352 174.344 106.952 174.344V174.344Z" fill="#F6F9F9"/>
<path d="M106.951 301.083C106.941 301.083 106.932 301.083 106.923 301.083C103.512 301.074 100.277 299.423 98.2687 296.664L89.2487 284.276C86.7367 280.826 87.4967 275.993 90.9467 273.481C94.3967 270.97 99.2297 271.73 101.741 275.179L106.972 282.364L122.267 261.584C124.797 258.148 129.633 257.413 133.069 259.942C136.506 262.471 137.241 267.308 134.711 270.745L115.599 296.71C113.584 299.451 110.352 301.083 106.951 301.083Z" fill="#F6F9F9"/>
<path d="M106.95 422.425C106.941 422.425 106.932 422.425 106.924 422.424C103.514 422.416 100.278 420.765 98.2704 418.009L89.2484 405.617C86.7364 402.167 87.4974 397.335 90.9474 394.823C94.3994 392.311 99.2304 393.073 101.741 396.522L106.971 403.706L122.267 382.926C124.797 379.49 129.633 378.755 133.069 381.284C136.506 383.813 137.241 388.65 134.711 392.087L115.599 418.052C113.582 420.791 110.351 422.425 106.95 422.425V422.425Z" fill="#F6F9F9"/>
<path d="M287.692 144.605H192.177C187.91 144.605 184.451 141.146 184.451 136.879C184.451 132.612 187.91 129.153 192.177 129.153H287.692C291.959 129.153 295.418 132.612 295.418 136.879C295.418 141.146 291.959 144.605 287.692 144.605Z" fill="#6C5DD3"/>
<path d="M239.935 176.892H192.178C187.911 176.892 184.452 173.433 184.452 169.166C184.452 164.899 187.911 161.44 192.178 161.44H239.935C244.202 161.44 247.661 164.899 247.661 169.166C247.661 173.433 244.202 176.892 239.935 176.892Z" fill="#6C5DD3"/>
<path d="M256.264 268.645H192.178C187.911 268.645 184.452 265.186 184.452 260.919C184.452 256.652 187.911 253.193 192.178 253.193H256.264C260.531 253.193 263.99 256.652 263.99 260.919C263.99 265.186 260.531 268.645 256.264 268.645Z" fill="#6C5DD3"/>
<path d="M239.935 300.932H192.178C187.911 300.932 184.452 297.473 184.452 293.206C184.452 288.939 187.911 285.48 192.178 285.48H239.935C244.202 285.48 247.661 288.939 247.661 293.206C247.661 297.473 244.202 300.932 239.935 300.932Z" fill="#6C5DD3"/>
<path d="M411.91 201.718L404.324 191.724L375.939 173.749L365.028 172.03L219.683 401.703C216.176 407.241 213.603 413.318 212.067 419.69C229.751 419.909 245.802 430.073 253.561 445.966C258.665 441.853 263.058 436.929 266.565 431.391L411.91 201.718Z" fill="#D15573"/>
<path d="M432.431 130.992L420.166 123.225C410.605 117.17 397.945 120.015 391.893 129.578L380.646 147.351L384.234 154.584L418.364 176.197L427.529 177.039L438.783 159.255C444.831 149.697 441.988 137.044 432.431 130.992V130.992Z" fill="#8C9BA6"/>
<path d="M365.044 171.964L380.669 147.286L427.559 176.974L411.935 201.653L365.044 171.964Z" fill="#A4D7F5"/>
<path d="M253.561 445.967L212.176 479.317C206.338 484.022 197.856 478.651 199.613 471.362L212.067 419.691C229.751 419.909 245.803 430.074 253.561 445.967V445.967Z" fill="#7C8B96"/>
<path d="M242.706 431.649L395.065 191.051L382.01 182.784L229.651 423.382C234.431 425.396 238.841 428.189 242.706 431.649V431.649Z" fill="#C21D44"/>
</svg>
