<svg width="100" height="100" viewBox="0 0 100 100" fill="none" xmlns="http://www.w3.org/2000/svg">
	<path d="M23.5376 19.355H14.5279C13.636 19.355 12.915 20.0776 12.915 20.9679V30.6454C12.915 31.5357 13.636 32.2583 14.5279 32.2583H24.2054C25.0973 32.2583 25.8183 31.5357 25.8183 30.6454V21.6357L28.5715 18.8825L26.2909 16.6018L23.5376 19.355ZM20.3118 22.5808L16.1408 26.7518V22.5808H20.3118ZM22.5925 29.0325H18.4215L22.5925 24.8615V29.0325Z" fill="#6C5DD3" />
	<path d="M23.5376 35.4805H14.5279C13.636 35.4805 12.915 36.2031 12.915 37.0934V46.7709C12.915 47.6612 13.636 48.3838 14.5279 48.3838H24.2054C25.0973 48.3838 25.8183 47.6612 25.8183 46.7709V37.7612L28.5715 35.0079L26.2909 32.7273L23.5376 35.4805ZM20.3118 38.7063L16.1408 42.8773V38.7063H20.3118ZM22.5925 45.158H18.4215L22.5925 40.987V45.158Z" fill="#6C5DD3" />
	<path d="M23.5376 51.6177H14.5279C13.636 51.6177 12.915 52.3387 12.915 53.2306V62.9081C12.915 63.8 13.636 64.521 14.5279 64.521H24.2054C25.0973 64.521 25.8183 63.8 25.8183 62.9081V53.8984L28.5715 51.1452L26.2909 48.8645L23.5376 51.6177ZM20.3118 54.8435L16.1408 59.0145V54.8435H20.3118ZM22.5925 61.2952H18.4215L22.5925 57.1242V61.2952Z" fill="#6C5DD3" />
	<path d="M26.2909 64.9851L23.5376 67.7383H14.5279C13.636 67.7383 12.915 68.4593 12.915 69.3512V79.0287C12.915 79.9206 13.636 80.6416 14.5279 80.6416H24.2054C25.0973 80.6416 25.8183 79.9206 25.8183 79.0287V70.019L28.5715 67.2658L26.2909 64.9851ZM20.3118 70.9641L16.1408 75.1351V70.9641H20.3118ZM22.5925 77.4158H18.4215L22.5925 73.2448V77.4158Z" fill="#6C5DD3" />
	<path d="M32.2515 19.3484H61.2837V22.5742H32.2515V19.3484Z" fill="#6C5DD3" />
	<path d="M32.2515 29.0403H61.2837V32.2661H32.2515V29.0403Z" fill="#6C5DD3" />
	<path d="M32.2515 35.4856H61.2837V38.7114H32.2515V35.4856Z" fill="#6C5DD3" />
	<path d="M32.2515 45.1536H45.1547V48.3794H32.2515V45.1536Z" fill="#6C5DD3" />
	<path d="M32.2515 51.6165H45.1547V54.8423H32.2515V51.6165Z" fill="#6C5DD3" />
	<path d="M32.2515 61.2917H45.1547V64.5176H32.2515V61.2917Z" fill="#6C5DD3" />
	<path d="M98.3871 100C99.279 100 100 99.279 100 98.3871V72.5806C100 71.6887 99.279 70.9677 98.3871 70.9677H83.871V46.7742C83.871 45.8839 83.15 45.1613 82.2581 45.1613H77.4194V4.83871C77.4194 3.94839 76.6984 3.22581 75.8064 3.22581H58.0645V1.6129C58.0645 0.722581 57.3435 0 56.4516 0H20.9677C20.0758 0 19.3548 0.722581 19.3548 1.6129V3.22581H1.6129C0.720968 3.22581 0 3.94839 0 4.83871V95.1613C0 96.0532 0.720968 96.7742 1.6129 96.7742H32.2581V98.3871C32.2581 99.279 32.979 100 33.871 100H98.3871ZM83.871 74.1936V80.6452H80.6452V74.1936H83.871ZM51.6129 70.9677V48.3871H61.2903V56.4516C61.2903 57.3435 62.0113 58.0645 62.9032 58.0645H69.3548C70.2468 58.0645 70.9677 57.3435 70.9677 56.4516V48.3871H80.6452V70.9677H51.6129ZM51.6129 74.1936V80.6452H48.3871V74.1936H51.6129ZM64.5161 48.3871H67.7419V54.8387H64.5161V48.3871ZM74.1936 6.45161V45.1613H70.9677V11.2903C70.9677 10.4 70.2468 9.67742 69.3548 9.67742H58.0645V6.45161H74.1936ZM22.5806 3.22581H54.8387V12.9032H22.5806V3.22581ZM3.22581 93.5484V6.45161H19.3548V9.67742H8.06452C7.17258 9.67742 6.45161 10.4 6.45161 11.2903V85.4839C6.45161 86.3758 7.17258 87.0968 8.06452 87.0968H32.2581V93.5484H3.22581ZM32.2581 72.5806V83.871H9.67742V12.9032H19.3548V14.5161C19.3548 15.4065 20.0758 16.129 20.9677 16.129H56.4516C57.3435 16.129 58.0645 15.4065 58.0645 14.5161V12.9032H67.7419V45.1613H50C49.1081 45.1613 48.3871 45.8839 48.3871 46.7742V70.9677H33.871C32.979 70.9677 32.2581 71.6887 32.2581 72.5806ZM35.4839 74.1936H45.1613V82.2581C45.1613 83.15 45.8823 83.871 46.7742 83.871H53.2258C54.1177 83.871 54.8387 83.15 54.8387 82.2581V74.1936H64.5161V96.7742H35.4839V74.1936ZM96.7742 96.7742H67.7419V74.1936H77.4194V82.2581C77.4194 83.15 78.1403 83.871 79.0323 83.871H85.4839C86.3758 83.871 87.0968 83.15 87.0968 82.2581V74.1936H96.7742V96.7742Z" fill="#6C5DD3" />
	<path d="M87.0845 90.3191H93.5361V93.5449H87.0845V90.3191Z" fill="#6C5DD3" />
	<path d="M70.9712 64.5144H77.4228V67.7402H70.9712V64.5144Z" fill="#6C5DD3" />
	<path d="M54.8496 90.3191H61.3012V93.5449H54.8496V90.3191Z" fill="#6C5DD3" />
</svg>
