<svg width="512" height="452" viewBox="0 0 512 452" fill="none" xmlns="http://www.w3.org/2000/svg">
<path d="M436 278.855V369.106H406V413.532H504.234V278.855H436Z" fill="#6E91EF"/>
<path d="M436 278.855H458.467V376.782H436V278.855Z" fill="#3D6DEA"/>
<path d="M428.467 391.319V369.106H406V413.532H504.234V391.319H428.467Z" fill="#3D6DEA"/>
<path d="M75.9996 278.855V369.106H106V413.532H7.76562V278.855H75.9996Z" fill="#6E91EF"/>
<path d="M31.2706 390.17V278.855H7.76562V413.532H106V390.17H31.2706Z" fill="#3D6DEA"/>
<path d="M76 249.086H436V369.107H76V249.086Z" fill="#D15573"/>
<path d="M98.802 346.298V249.48H76V369.501H436V346.298H98.802Z" fill="#C21D44"/>
<path d="M136.071 114.096H375.999V249.085H136.071V114.096Z" fill="#C4E5F9"/>
<path d="M158.413 226.743V114.096H136.071V249.085H375.999V226.743H158.413Z" fill="#A4D7F5"/>
<path d="M136.071 368.5H375.999V443.412H136.071V368.5Z" fill="#C4E5F9"/>
<path d="M158.413 422.071V369.501H136.071V444.413H375.999V422.071H158.413Z" fill="#A4D7F5"/>
<path d="M196 174.16C204.284 174.16 211 167.444 211 159.16C211 150.876 204.284 144.16 196 144.16C187.716 144.16 181 150.876 181 159.16C181 167.444 187.716 174.16 196 174.16Z" fill="#F8E868"/>
<path d="M316 174.16C324.284 174.16 331 167.444 331 159.16C331 150.876 324.284 144.16 316 144.16C307.715 144.16 301 150.876 301 159.16C301 167.444 307.715 174.16 316 174.16Z" fill="#F8E868"/>
<path d="M31.2871 301.309H46.2871V316.309H31.2871V301.309Z" fill="white"/>
<path d="M458.5 301.309H473.5V316.309H458.5V301.309Z" fill="white"/>
<path d="M248.5 391.309H263.5V406.601H248.5V391.309Z" fill="white"/>
<path d="M218.5 391.309H233.5V406.601H218.5V391.309Z" fill="white"/>
<path d="M278.5 391.309H293.5V406.601H278.5V391.309Z" fill="white"/>
<path d="M293.539 271.402H278.523V346.363H323.516V331.347H293.539V271.402Z" fill="black"/>
<path d="M233.477 271.402C216.918 271.402 203.446 284.874 203.446 301.433V346.362H218.462V331.4H248.493V346.362H263.509V301.433C263.508 284.874 250.036 271.402 233.477 271.402ZM218.461 316.385V301.433C218.461 293.153 225.197 286.417 233.477 286.417C241.757 286.417 248.493 293.153 248.493 301.433V316.385H218.461Z" fill="black"/>
<path d="M338.586 346.363H383.643V331.347H353.601V316.363H368.628V301.348H353.601V286.364H383.643V271.348H338.586V346.363Z" fill="black"/>
<path d="M166.161 301.282L158.503 301.275C154.434 301.271 151.123 297.944 151.123 293.86C151.123 289.771 154.437 286.445 158.51 286.445H188.529V271.429H158.51C146.157 271.429 136.108 281.492 136.108 293.86C136.108 306.217 146.149 316.279 158.49 316.291H166.147C175.863 316.46 175.883 331.146 166.174 331.348H135.915L135.981 346.364H166.241C195.794 345.3 195.707 302.22 166.161 301.282V301.282Z" fill="black"/>
<path d="M443.695 271.402V241.602H383.633V106.472H323.57V67.7399C323.57 50.9519 317.371 34.8549 306.115 22.4159L294.98 32.4909C303.733 42.1639 308.554 54.6819 308.554 67.7399V106.473H203.445V67.7399C203.445 38.7609 227.021 15.1849 256 15.1849C266.018 15.1849 275.758 18.0119 284.166 23.3599L292.225 10.6909C281.404 3.80795 268.878 0.168945 256 0.168945C218.742 0.168945 188.43 30.4809 188.43 67.7389V106.472H128.44V241.602H68.305V271.402H0V331.418H15.016V286.418H68.306V376.763H98.337V406.219H15.016V346.434H0V421.235H113.352V376.764H128.44V451.832H233.494V436.816H143.455V376.764H368.616V436.816H278.54V451.832H383.631V376.764H398.647V421.235H512V271.402H443.695ZM143.455 121.488H188.429V137.858C179.691 140.957 173.413 149.302 173.413 159.09C173.413 171.51 183.517 181.613 195.936 181.613C208.355 181.613 218.459 171.509 218.459 159.09C218.459 149.302 212.182 140.957 203.443 137.858V121.488H308.552V137.858C299.814 140.957 293.536 149.302 293.536 159.09C293.536 171.51 303.64 181.613 316.059 181.613C328.478 181.613 338.582 171.509 338.582 159.09C338.582 149.302 332.305 140.957 323.566 137.858V121.488H368.613V241.602H143.455V121.488ZM203.445 159.09C203.445 163.23 200.077 166.598 195.937 166.598C191.797 166.598 188.429 163.23 188.429 159.09C188.429 154.95 191.797 151.582 195.937 151.582C200.078 151.582 203.445 154.95 203.445 159.09ZM323.57 159.09C323.57 163.23 320.202 166.598 316.062 166.598C311.922 166.598 308.554 163.23 308.554 159.09C308.554 154.95 311.922 151.582 316.062 151.582C320.202 151.582 323.57 154.95 323.57 159.09ZM83.321 256.618H428.679V361.748H83.321V256.618ZM496.984 406.219H413.663V376.763H443.694V286.418H496.984V406.219Z" fill="black"/>
<path d="M248.546 436.815H263.525V451.831H248.546V436.815Z" fill="black"/>
<path d="M398.767 166.698L428.705 134.837L439.65 145.122L409.713 176.983L398.767 166.698Z" fill="#6C5DD3"/>
<path d="M440.033 213.767L477.575 191.434L485.248 204.332L447.705 226.665L440.033 213.767Z" fill="#6C5DD3"/>
<path d="M420.623 188.617L454.713 161.258L464.113 172.97L430.023 200.33L420.623 188.617Z" fill="#6C5DD3"/>
<path d="M72.915 145.391L83.861 135.106L113.799 166.967L102.853 177.252L72.915 145.391Z" fill="#6C5DD3"/>
<path d="M26.8447 204.051L34.5174 191.153L72.06 213.486L64.3873 226.384L26.8447 204.051Z" fill="#6C5DD3"/>
<path d="M48.4697 172.807L57.8697 161.094L91.9596 188.453L82.5596 200.166L48.4697 172.807Z" fill="#6C5DD3"/>
</svg>
