<svg width="496" height="496" viewBox="0 0 496 496" fill="none" xmlns="http://www.w3.org/2000/svg">
<path d="M8 8H264V280H8V8Z" fill="#E6E9ED"/>
<path d="M232 216H488V488H232V216Z" fill="#E6E9ED"/>
<path d="M200 82.72C200 101.2 191.36 118.56 176.64 129.76L175.92 130.32H175.84C176 129.6 176 128.8 176 128V101.76C176 98.32 173.76 95.28 170.56 94.16C158.32 90.08 147.28 83.28 138.16 74.16L136 72L133.84 74.16C124.72 83.28 113.68 90.08 101.44 94.16C98.24 95.28 96 98.32 96 101.76V128C96 128.8 96 129.6 96.16 130.32H96.08L95.36 129.76C88 124.16 82.16 117.04 78.16 108.96C74.16 100.96 72 92 72 82.72C72 72 76.08 61.6 83.28 53.76C91.44 44.96 102.8 40 114.72 40H157.28C169.2 40 180.56 44.96 188.72 53.76C195.92 61.6 200 72 200 82.72V82.72Z" fill="#B27946"/>
<path d="M216 228.16V280H56V228.16C56 220.24 58.32 212.48 62.72 205.84C68.64 196.96 77.84 190.8 88.32 188.72L112 184L112.88 185.68C117.2 194.48 126.16 200 136 200C145.84 200 154.8 194.48 159.12 185.68L160 184L183.68 188.72C194.16 190.8 203.36 196.96 209.28 205.84C213.68 212.48 216 220.24 216 228.16Z" fill="#C21D44"/>
<path d="M319.36 337.76C304.64 326.56 296 309.2 296 290.72C296 280 300.08 269.6 307.28 261.76C315.44 252.96 326.8 248 338.72 248H408C416.8 248 424 255.2 424 264C424 277.28 418.64 289.28 409.92 297.92C406.96 300.88 403.68 303.44 400 305.6C392.96 309.68 384.8 312 376 312H373.92C370 312 366.16 311.12 362.72 309.36C356.16 306.08 352 299.36 352 292C352 291.76 352 291.44 352.08 291.2H352L335.12 298C326 301.6 320 310.4 320 320.24V336C320 336.8 320 337.6 320.16 338.32H320.08L319.36 337.76Z" fill="#B27946"/>
<path d="M440 436.16V488H253.36C276.88 488 296 468.88 296 445.36V404.08C300.8 400.48 306.32 397.92 312.32 396.72L336 392L336.88 393.68C341.2 402.48 350.16 408 360 408C369.84 408 378.8 402.48 383.12 393.68L384 392L407.68 396.72C418.16 398.8 427.36 404.96 433.28 413.84C437.68 420.48 440 428.24 440 436.16V436.16Z" fill="#52CD8D"/>
<path d="M116.16 162.72L136 168C143.2 168 150 166.08 155.84 162.72L160 184L159.12 185.68C154.8 194.48 145.84 200 136 200C126.16 200 117.2 194.48 112.88 185.68L112 184L116.16 162.72Z" fill="#F0D0B4"/>
<path d="M176 101.76V128C176 128.8 176 129.6 175.84 130.32C175.12 144.24 167.28 156.16 155.84 162.72C150 166.08 143.2 168 136 168L116.16 162.72C113.04 160.96 110.16 158.8 107.68 156.32C100.96 149.52 96.64 140.48 96.16 130.32C96 129.6 96 128.8 96 128V101.76C96 98.32 98.24 95.28 101.44 94.16C113.68 90.08 124.72 83.28 133.84 74.16L136 72L138.16 74.16C147.28 83.28 158.32 90.08 170.56 94.16C173.76 95.28 176 98.32 176 101.76Z" fill="#F0D0B4"/>
<path d="M340.16 370.72C346 374.08 352.8 376 360 376C367.2 376 374 374.08 379.84 370.72L384 392L383.12 393.68C378.8 402.48 369.84 408 360 408C350.16 408 341.2 402.48 336.88 393.68L336 392L340.16 370.72Z" fill="#F0D0B4"/>
<path d="M352 292C352 299.36 356.16 306.08 362.72 309.36C366.16 311.12 370 312 373.92 312H376C384.8 312 392.96 309.68 400 305.6V336C400 347.04 395.52 357.04 388.32 364.32C385.84 366.8 382.96 368.96 379.84 370.72C374 374.08 367.2 376 360 376C352.8 376 346 374.08 340.16 370.72C328.72 364.16 320.88 352.24 320.16 338.32C320 337.6 320 336.8 320 336V320.24C320 310.4 326 301.6 335.12 298L352 291.2H352.08C352 291.44 352 291.76 352 292Z" fill="#F0D0B4"/>
<path d="M440 24H248C221.52 24 200 45.52 200 72V82.72V141.36C200 153.12 204.8 163.76 212.48 171.52C220.24 179.2 230.88 184 242.64 184C250.24 184 257.52 182 263.92 178.24C268.88 175.44 273.28 171.6 276.8 166.96C283.84 157.52 294.88 152 306.64 152H381.36C393.12 152 404.16 157.52 411.2 166.96C419.28 177.68 431.92 184 445.36 184C468.88 184 488 164.88 488 141.36V72C488 45.52 466.48 24 440 24V24Z" fill="#AAB2BD"/>
<path d="M248 328H56C29.52 328 8 349.52 8 376V386.72V445.36C8 457.12 12.8 467.76 20.48 475.52C28.24 483.2 38.88 488 50.64 488C58.24 488 65.52 486 71.92 482.24C76.88 479.44 81.28 475.6 84.8 470.96C91.84 461.52 102.88 456 114.64 456H189.36C201.12 456 212.16 461.52 219.2 470.96C227.28 481.68 239.92 488 253.36 488C276.88 488 296 468.88 296 445.36V376C296 349.52 274.48 328 248 328V328Z" fill="#AAB2BD"/>
<path d="M296 80V96C296 100.4 292.4 104 288 104H280V112C280 116.4 276.4 120 272 120H256C251.6 120 248 116.4 248 112V104H240C235.6 104 232 100.4 232 96V80C232 75.6 235.6 72 240 72H248V64C248 59.6 251.6 56 256 56H272C276.4 56 280 59.6 280 64V72H288C292.4 72 296 75.6 296 80Z" fill="#FF826E"/>
<path d="M328 56H360V88H328V56Z" fill="#FCD770"/>
<path d="M328 24H360V56H328V24Z" fill="#FCD770"/>
<path d="M136 360H168V392H136V360Z" fill="#FCD770"/>
<path d="M136 328H168V360H136V328Z" fill="#FCD770"/>
<path d="M104 384V400C104 404.4 100.4 408 96 408H88V416C88 420.4 84.4 424 80 424H64C59.6 424 56 420.4 56 416V408H48C43.6 408 40 404.4 40 400V384C40 379.6 43.6 376 48 376H56V368C56 363.6 59.6 360 64 360H80C84.4 360 88 363.6 88 368V376H96C100.4 376 104 379.6 104 384Z" fill="#FF826E"/>
<path d="M96 368C96 359.176 88.824 352 80 352H64C55.176 352 48 359.176 48 368C39.176 368 32 375.176 32 384V400C32 408.824 39.176 416 48 416C48 424.824 55.176 432 64 432H80C88.824 432 96 424.824 96 416C104.824 416 112 408.824 112 400V384C112 375.176 104.824 368 96 368ZM96 400H80V416H64V400H48V384H64V368H80V384L96 383.984V400Z" fill="black"/>
<path d="M128 416H144V432H128V416Z" fill="black"/>
<path d="M160 416H176V432H160V416Z" fill="black"/>
<path d="M208 416H224V432H208V416Z" fill="black"/>
<path d="M240 416H256V432H240V416Z" fill="black"/>
<path d="M232 368C236.418 368 240 364.418 240 360C240 355.582 236.418 352 232 352C227.582 352 224 355.582 224 360C224 364.418 227.582 368 232 368Z" fill="black"/>
<path d="M232 400C236.418 400 240 396.418 240 392C240 387.582 236.418 384 232 384C227.582 384 224 387.582 224 392C224 396.418 227.582 400 232 400Z" fill="black"/>
<path d="M216 384C220.418 384 224 380.418 224 376C224 371.582 220.418 368 216 368C211.582 368 208 371.582 208 376C208 380.418 211.582 384 216 384Z" fill="black"/>
<path d="M248 384C252.418 384 256 380.418 256 376C256 371.582 252.418 368 248 368C243.582 368 240 371.582 240 376C240 380.418 243.582 384 248 384Z" fill="black"/>
<path d="M288 64C288 55.176 280.824 48 272 48H256C247.176 48 240 55.176 240 64C231.176 64 224 71.176 224 80V96C224 104.824 231.176 112 240 112C240 120.824 247.176 128 256 128H272C280.824 128 288 120.824 288 112C296.824 112 304 104.824 304 96V80C304 71.176 296.824 64 288 64ZM288 96H272V112H256V96H240V80H256V64H272V80L288 79.984V96Z" fill="black"/>
<path d="M283.192 171.736C288.712 164.384 297.488 160 306.664 160H381.336C390.512 160 399.288 164.384 404.808 171.728C414.312 184.424 429.472 192 445.336 192C473.272 192 496 169.272 496 141.336V72C496 41.128 470.872 16 440 16H272V0H0V288H224V320H56C25.128 320 0 345.128 0 376V445.336C0 473.272 22.728 496 50.664 496C66.528 496 81.688 488.424 91.192 475.736C96.712 468.384 105.488 464 114.664 464H189.336C198.512 464 207.288 468.384 212.808 475.728C222.312 488.424 237.472 496 253.336 496H496V208H272V182.528C276.216 179.528 280.04 175.944 283.192 171.736ZM480 72V141.336C480 160.456 464.456 176 445.336 176C434.48 176 424.112 170.816 417.6 162.128C409.08 150.776 395.52 144 381.336 144H306.664C292.48 144 278.92 150.776 270.4 162.136C263.888 170.816 253.52 176 242.664 176C223.544 176 208 160.456 208 141.336V72C208 49.944 225.944 32 248 32H320V96H368V32H440C462.056 32 480 49.944 480 72V72ZM173.064 86.592C162.112 82.936 152.008 76.696 143.848 68.528L136 60.688L128.16 68.528C119.992 76.696 109.896 82.936 98.952 86.584C92.4 88.768 88 94.864 88 101.768V110.056C82.872 101.944 80 92.456 80 82.696C80 73.944 83.264 65.592 89.192 59.176C95.752 52.072 105.048 48 114.696 48H157.304C166.952 48 176.248 52.072 182.808 59.168C188.736 65.592 192 73.944 192 82.704C192 92.456 189.128 101.952 184 110.056V101.768C184 94.864 179.6 88.768 173.064 86.592V86.592ZM208 272H64V228.176C64 221.792 65.872 215.616 69.416 210.296C74.184 203.136 81.464 198.264 89.92 196.576L107.888 192.984C114.12 202.328 124.536 208 136 208C147.464 208 157.88 202.328 164.12 192.984L182.088 196.576C190.544 198.264 197.824 203.136 202.592 210.304C206.128 215.616 208 221.8 208 228.176V272ZM151.6 182.696C148.448 188.424 142.576 192 136 192C129.424 192 123.552 188.424 120.4 182.696L122.096 173.928C126.504 175.264 131.168 176 136 176C140.832 176 145.496 175.264 149.896 173.928L151.6 182.696ZM136 160C118.352 160 104 145.648 104 128V101.768C115.784 97.848 126.76 91.44 136 83.136C145.24 91.44 156.216 97.84 168 101.768V128C168 145.648 153.648 160 136 160ZM336 64H352V80H336V64ZM352 48H336V32H352V48ZM16 16H248C224.712 16 204.712 30.296 196.28 50.568C195.672 49.832 195.2 49.016 194.552 48.312C184.984 37.944 171.408 32 157.304 32H114.696C100.592 32 87.016 37.944 77.448 48.312C68.776 57.704 64 69.904 64 82.696C64 102.648 73.144 121.728 88.48 134.392C90.232 147.432 97.216 158.808 107.272 166.36L105.168 177.208L86.776 180.888C74.136 183.416 63.24 190.712 56.104 201.424C50.808 209.384 48 218.632 48 228.176V272H16V16ZM144 368H160V384H144V368ZM160 352H144V336H160V352ZM225.6 466.128C217.08 454.776 203.52 448 189.336 448H114.664C100.48 448 86.92 454.776 78.4 466.136C71.888 474.816 61.52 480 50.664 480C31.544 480 16 464.456 16 445.336V376C16 353.944 33.944 336 56 336H128V400H176V336H248C270.056 336 288 353.944 288 376V445.336C288 464.456 272.456 480 253.336 480C242.48 480 232.112 474.816 225.6 466.128V466.128ZM304 445.336V408.576C307.096 406.76 310.4 405.28 313.912 404.576L331.88 400.984C338.12 410.328 348.536 416 360 416C371.464 416 381.88 410.328 388.12 400.984L406.088 404.576C414.544 406.264 421.824 411.136 426.592 418.304C430.128 423.616 432 429.8 432 436.176V480H290.184C298.728 470.928 304 458.752 304 445.336V445.336ZM312.144 318.312C306.92 310.144 304 300.552 304 290.696C304 281.944 307.264 273.592 313.192 267.176C319.752 260.072 329.048 256 338.696 256H408C412.416 256 416 259.584 416 264C416 286.056 398.056 304 376 304H373.888C371.264 304 368.648 303.384 366.312 302.208C362.424 300.264 360 296.352 360 292C360 287.648 362.424 283.736 366.312 281.792L371.576 279.16L364.416 264.848L359.152 267.48C351.816 271.144 346.712 277.744 344.832 285.456L332.112 290.544C320.512 295.176 312.888 305.96 312.144 318.312V318.312ZM328 320.248C328 313.672 331.944 307.832 338.056 305.4L346.008 302.224C348.448 308.328 353.016 313.456 359.152 316.52C363.696 318.8 368.792 320 373.888 320H376C381.56 320 386.928 319.16 392 317.64V335.992C392 353.64 377.648 368 360 368C342.352 368 328 353.648 328 336V320.248ZM360 384C364.832 384 369.496 383.264 373.896 381.928L375.592 390.696C372.448 396.424 366.576 400 360 400C353.424 400 347.552 396.424 344.4 390.696L346.096 381.928C350.504 383.264 355.168 384 360 384V384ZM480 224V480H448V436.176C448 426.632 445.192 417.376 439.896 409.432C432.76 398.704 421.864 391.416 409.224 388.888L390.832 385.208L388.728 374.36C400.4 365.592 408 351.68 408 335.992V309.888C422.488 299.752 432 282.976 432 264C432 250.768 421.232 240 408 240H338.696C324.592 240 311.016 245.944 301.448 256.312C292.776 265.704 288 277.904 288 290.696C288 310.648 297.144 329.728 312.48 342.392C314.232 355.432 321.216 366.808 331.272 374.36L329.168 385.208L310.784 388.888C308.48 389.344 306.224 390.04 304 390.84V376C304 345.128 278.872 320 248 320H240V288H272V224H480ZM256 272H224V228.176C224 218.632 221.192 209.376 215.896 201.432C208.76 190.704 197.864 183.416 185.224 180.888L166.832 177.208L164.728 166.36C174.784 158.808 181.776 147.432 183.52 134.392C186.592 131.856 189.448 129.096 192 126.08V141.336C192 169.272 214.728 192 242.664 192C247.216 192 251.68 191.312 256 190.12V272Z" fill="black"/>
<path d="M320 112H336V128H320V112Z" fill="black"/>
<path d="M352 112H368V128H352V112Z" fill="black"/>
<path d="M400 112H416V128H400V112Z" fill="black"/>
<path d="M432 112H448V128H432V112Z" fill="black"/>
<path d="M424 64C428.418 64 432 60.4183 432 56C432 51.5817 428.418 48 424 48C419.582 48 416 51.5817 416 56C416 60.4183 419.582 64 424 64Z" fill="black"/>
<path d="M424 96C428.418 96 432 92.4183 432 88C432 83.5817 428.418 80 424 80C419.582 80 416 83.5817 416 88C416 92.4183 419.582 96 424 96Z" fill="black"/>
<path d="M408 80C412.418 80 416 76.4183 416 72C416 67.5817 412.418 64 408 64C403.582 64 400 67.5817 400 72C400 76.4183 403.582 80 408 80Z" fill="black"/>
<path d="M440 80C444.418 80 448 76.4183 448 72C448 67.5817 444.418 64 440 64C435.582 64 432 67.5817 432 72C432 76.4183 435.582 80 440 80Z" fill="black"/>
</svg>
